<?xml version="1.0" encoding="UTF-8" standalone="no"?> <svg id="Layer_1" data-name="Layer 1" xmlns="http://www.w3.org/2000/svg" viewBox="0 0 512 512"><title>Coins</title><path d="M256,21.333C126.4,21.333,21.333,126.4,21.333,256S126.4,490.667,256,490.667,490.667,385.6,490.667,256,385.6,21.333,256,21.333ZM256,448C150.13,448,64,361.87,64,256S150.13,64,256,64s192,86.13,192,192S361.87,448,256,448Z"/><path d="M256,85.333C161.9,85.333,85.333,161.9,85.333,256S161.9,426.667,256,426.667,426.667,350.1,426.667,256,350.1,85.333,256,85.333Zm29.516,250.529A67.431,67.431,0,0,1,272,340.889V358.4a16,16,0,1,1-32,0V341.674a90.947,90.947,0,0,1-36.146-16.312,16,16,0,0,1,18.958-25.781c24.036,17.672,43.01,10.38,48.255,7.727,7.969-4.031,11.6-9.909,11.6-13.661,0-8.729-7.687-13.138-24.917-19.719-2.995-1.146-5.786-2.221-8.208-3.286-1.687-.747-3.724-1.508-5.953-2.357-15.016-5.7-46.255-17.56-46.255-49.93,0-16.943,11.172-33.117,29.151-42.216A67.38,67.38,0,0,1,240,171.064v-16.4a16,16,0,1,1,32,0v15.61a91.075,91.075,0,0,1,36.146,16.362,16,16,0,0,1-18.958,25.781c-24.036-17.672-43.016-10.38-48.255-7.727-7.969,4.031-11.6,9.909-11.6,13.661,0,8.7,8.625,13.565,25.615,20.013,2.818,1.07,5.38,2.055,7.51,2.995,1.974.872,4.266,1.737,6.714,2.672,15.9,6.073,45.495,17.38,45.495,49.612C314.667,310.589,303.495,326.763,285.516,335.862Z"/></svg>